<?xml version="1.0" encoding="UTF-8"?>
<svg xmlns="http://www.w3.org/2000/svg" version="1.1" xmlns:xlink="http://www.w3.org/1999/xlink" viewBox="0 0 595.3 595.3">
  <defs>
    <style>
      .cls-1 {
        fill: #1d1d1b;
      }

      .cls-2 {
        display: none;
      }
    </style>
  </defs>
  <!-- Generator: Adobe Illustrator 28.7.3, SVG Export Plug-In . SVG Version: 1.2.0 Build 164)  -->
  <g>
    <g id="Calque" class="cls-2">
      <image width="272" height="280" transform="translate(43.2 36.2) scale(1.5)" xlink:href="film clap ciné-1.png"/>
    </g>
    <g id="film">
      <path class="cls-1" d="M568.8,258c-5.6-.2-21.4,0-28.8,0H82.4l438.8-126c15.2-4.4,24.1-20.4,19.7-35.6l-9.6-33.5c-4.4-15.2-20.4-24.1-35.6-19.7L37.9,174.5c-15.2,4.4-24.1,20.4-19.7,35.6l9.6,33.5c1.2,4.3,3.5,8.2,6.3,11.3v6.4c-1.6,11.5,0,24.3,0,25.3v236.6c0,15.8,12.9,28.8,28.8,28.8h477.1c15.8,0,28.8-12.9,28.8-28.8v-236.6c0-8.5.5-28.7,0-28.7ZM434,82l34,44-46.2,14.1-34.8-45.2,47.1-12.9ZM299,120.9l34,44-46.2,14.1-34.8-45.2,47-12.9ZM165.5,161.1l34,44-46.2,14.1-34.9-45.2,47.1-12.9ZM318.7,424.3l-71.1,42.6c-4.3,3.6-11.6,6.3-15.9,2.7-4.2-3.5-2.3-7.2-1.8-17.2v-81.6c-.2-4.9.5-9.8,5-11.3,5-1.7,10.4,2.7,15.4,6.3l67.1,38.1c4.1,1.5,6.9,5.2,7.2,9.5.4,4.5-1.9,8.8-5.9,10.9Z"/>
    </g>
  </g>
</svg>