<?xml version="1.0" encoding="UTF-8"?>
<svg xmlns="http://www.w3.org/2000/svg" version="1.1" viewBox="0 0 425.2 425.2">
  <defs>
    <style>
      .cls-1 {
        fill: #fff;
      }
    </style>
  </defs>
  <!-- Generator: Adobe Illustrator 28.7.3, SVG Export Plug-In . SVG Version: 1.2.0 Build 164)  -->
  <g>
    <g id="Calque_1">
      <g>
        <path class="cls-1" d="M139.7,54c0,0,0,.1,0,.2,2-.9,4.1-1.7,6.1-2.5-5.8,1-6.1,2-6.1,2.4Z"/>
        <path class="cls-1" d="M173.3,69.1c-4.8,1.9-6.9.3-11.1,3-5.9,3.8-6.6,10.3-9.3,10-1.9-.2-3.4-3.6-3.7-6.3-.6-5.4,3.5-7.4,3-11.2-.8-6.1-12.3-7.6-12.5-10.3,0,0,0-.1,0-.2,0-.4.4-1.4,6.1-2.4,3.7-.7,9.7-1.3,19.3-1.9,18.2-1,20,.1,20.7,1.5,2.3,4.2-4.2,14.4-12.6,17.8Z"/>
        <path class="cls-1" d="M328.4,166.7c-.2.3-.4.6-.5,1-.1-.2-.3-.5-.4-.7-.5-.9-1-1.7-1.6-2.4,0-.2.1-.3.2-.4l2.4,2.5Z"/>
        <path class="cls-1" d="M255.5,76.6c4.3,14.4,7.9,18.2,6.4,19.6-1.7,1.5-7.1-2-7.2.6-.1,3.8,2.1,11,1.8,15.5,0,1.1-12.9-1.3-13.3-2.8-.6-2.2,1.3-3.6.3-4.9-.8-1-2.2-.8-3.1.3-1,1.4.3,2.9-.7,3.9-.5.5-1.5.5-2.1,0-1-.8.2-2.8-.7-3.6-.7-.6-2.4-.2-3.3.8-2.5,2.5,1.2,8-.9,9.9-1.5,1.3-4.4-.6-5.6.7-.9,1,1.7,3.1.8,5.4-.6.2-1.5.4-2.4,0-1.5-.7-1.4-2.5-2.6-5.4-.9-2.3-2.2-3.9-4.7-7.1-1.6-2-2.5-2.8-3.3-2.6-.7.1-2,1-1.5,1.7,2.3,3.3,5.8,5.3,7.4,8.7.5,1-1.1,2.4-2,2.4-2.4.2-6.3-9-7.4-9.1-1.8-.2-6.1.2-7.9,1.5-1.7,1.2-2.5,2.8-4,5.6-1.9,3.5-1.6,4.5-3.1,5.6-1.9,1.4-5,1.4-6.9,0-3.8-2.7-2.4-10.2.6-11.8,2.6-1.4,6,2.1,7.9.4,1.2-1,.4-3.9.4-5.3,0-2.3-2.9-2.5-2.8-3.5.1-1,2.2-1.2,4.4-2.1,3.5-1.4,5.1-6.7,8.5-8.3,3-1.5,5,.7,9,.1,4.1-.6,6.3-3.1,7.4-6.2.9-2.6-3-3.3-3.3-6.7-.3-3.5,2.6-5.7,1.9-6.4-.7-.7-6,.2-6.5,3.9-.7,4.6,2.4,10-.8,11.2-.9.3-2.5-4.6-5-4.4-1.6,0-2.4,2.3-3.8,1.9-1-.2-1.5-1.6-1.7-2.1,0-.2-.8-2.4.6-4.2.8-1,1.8-1.4,2.2-1.5.2,0,.6,0,1-.2,4.3-2.8,4-8.3,8.7-11.2,2.2-1.4,5.4-1.8,7.6-.6,2.8,1.5,2.5,3.6,5,5.3,2.5,1.6,5,1,11.3-1,7.4-2.4,16.7-3.8,18.4-1.6,2.9,3.8-4.6,3.1-5,7.5h0Z"/>
        <path class="cls-1" d="M355,161.1c.3,1.2.8,1,3.3,4.3,1.6,2.1,1.9,2.8,2.1,3.2.4,1,.6,1.9.8,3.7.3,1.8.7,4.9.1,4.9-2.9,0-.6-1-1.9-2-1.4-1-2.2-.5-2.9-1.2-1.3-1.4,1.7-4.2.6-6.8-.8-2-2.9-1.4-4.4-3.8-1.6-2.4-1.5-6.1,0-7.1.6-.4,1.7-.5,2.2,0,.9.8-.6,2.5,0,4.7Z"/>
        <path class="cls-1" d="M254.7,253.9c-.1.1-.3.3-.5.5,0,.4,0,.8.1,1.1.1.5.2,1,.4,1.5.2-.2.4-.4.6-.7l-.6-2.4ZM268.5,248.2c.4-1.6,1.1-3.5,2.1-5.6-2,1.5-3.8,2.8-5.2,4-1.4,1.2-2.6,2.3-3.5,3.4-.9,1.1-1.5,2.2-1.7,3.2-.1,2.7-.2,4.1-.2,4.3.3,1.5,1.7,2.1,4.3,1.7,1.2-.2,3-1.3,5.4-3.4-.7-1-1.1-2-1.4-3-.3-1.4-.3-3,.1-4.6ZM268.5,248.2c.4-1.6,1.1-3.5,2.1-5.6-2,1.5-3.8,2.8-5.2,4-1.4,1.2-2.6,2.3-3.5,3.4-.9,1.1-1.5,2.2-1.7,3.2-.1,2.7-.2,4.1-.2,4.3.3,1.5,1.7,2.1,4.3,1.7,1.2-.2,3-1.3,5.4-3.4-.7-1-1.1-2-1.4-3-.3-1.4-.3-3,.1-4.6ZM254.7,253.9c-.1.1-.3.3-.5.5,0,.4,0,.8.1,1.1.1.5.2,1,.4,1.5.2-.2.4-.4.6-.7l-.6-2.4ZM254.7,253.9c-.1.1-.3.3-.5.5,0,.4,0,.8.1,1.1.1.5.2,1,.4,1.5.2-.2.4-.4.6-.7l-.6-2.4ZM268.5,248.2c.4-1.6,1.1-3.5,2.1-5.6-2,1.5-3.8,2.8-5.2,4-1.4,1.2-2.6,2.3-3.5,3.4-.9,1.1-1.5,2.2-1.7,3.2-.1,2.7-.2,4.1-.2,4.3.3,1.5,1.7,2.1,4.3,1.7,1.2-.2,3-1.3,5.4-3.4-.7-1-1.1-2-1.4-3-.3-1.4-.3-3,.1-4.6ZM280.9,250.4c-.1.1-.3.3-.4.4,0,.3,0,.6,0,.9,0,.5.2,1,.4,1.5.1-.2.3-.3.5-.5l-.5-2.3ZM295,244.7c.5-1.6,1.2-3.4,2.3-5.6-2.1,1.4-3.9,2.7-5.3,3.8-1.5,1.1-2.7,2.2-3.7,3.3-1,1.1-1.6,2.1-1.8,3.2-.3,2.7-.4,4.1-.3,4.3.3,1.5,1.7,2.1,4.2,1.8,1.2-.1,3-1.2,5.5-3.3-.7-1-1.1-2-1.2-3-.2-1.5-.1-3,.3-4.6ZM307.4,247.3c-.2.1-.3.3-.4.4-.1.7-.1,1.4,0,2.1,0,.2,0,.4,0,.7.3-.3.5-.5.8-.8l-.4-2.3ZM307.4,247.3c-.2.1-.3.3-.4.4-.1.7-.1,1.4,0,2.1,0,.2,0,.4,0,.7.3-.3.5-.5.8-.8l-.4-2.3ZM295,244.7c.5-1.6,1.2-3.4,2.3-5.6-2.1,1.4-3.9,2.7-5.3,3.8-1.5,1.1-2.7,2.2-3.7,3.3-1,1.1-1.6,2.1-1.8,3.2-.3,2.7-.4,4.1-.3,4.3.3,1.5,1.7,2.1,4.2,1.8,1.2-.1,3-1.2,5.5-3.3-.7-1-1.1-2-1.2-3-.2-1.5-.1-3,.3-4.6ZM280.9,250.4c-.1.1-.3.3-.4.4,0,.3,0,.6,0,.9,0,.5.2,1,.4,1.5.1-.2.3-.3.5-.5l-.5-2.3ZM268.5,248.2c.4-1.6,1.1-3.5,2.1-5.6-2,1.5-3.8,2.8-5.2,4-1.4,1.2-2.6,2.3-3.5,3.4-.9,1.1-1.5,2.2-1.7,3.2-.1,2.7-.2,4.1-.2,4.3.3,1.5,1.7,2.1,4.3,1.7,1.2-.2,3-1.3,5.4-3.4-.7-1-1.1-2-1.4-3-.3-1.4-.3-3,.1-4.6ZM254.7,253.9c-.1.1-.3.3-.5.5,0,.4,0,.8.1,1.1.1.5.2,1,.4,1.5.2-.2.4-.4.6-.7l-.6-2.4ZM254.7,253.9c-.1.1-.3.3-.5.5,0,.4,0,.8.1,1.1.1.5.2,1,.4,1.5.2-.2.4-.4.6-.7l-.6-2.4ZM268.5,248.2c.4-1.6,1.1-3.5,2.1-5.6-2,1.5-3.8,2.8-5.2,4-1.4,1.2-2.6,2.3-3.5,3.4-.9,1.1-1.5,2.2-1.7,3.2-.1,2.7-.2,4.1-.2,4.3.3,1.5,1.7,2.1,4.3,1.7,1.2-.2,3-1.3,5.4-3.4-.7-1-1.1-2-1.4-3-.3-1.4-.3-3,.1-4.6ZM280.9,250.4c-.1.1-.3.3-.4.4,0,.3,0,.6,0,.9,0,.5.2,1,.4,1.5.1-.2.3-.3.5-.5l-.5-2.3ZM295,244.7c.5-1.6,1.2-3.4,2.3-5.6-2.1,1.4-3.9,2.7-5.3,3.8-1.5,1.1-2.7,2.2-3.7,3.3-1,1.1-1.6,2.1-1.8,3.2-.3,2.7-.4,4.1-.3,4.3.3,1.5,1.7,2.1,4.2,1.8,1.2-.1,3-1.2,5.5-3.3-.7-1-1.1-2-1.2-3-.2-1.5-.1-3,.3-4.6ZM307.4,247.3c-.2.1-.3.3-.4.4-.1.7-.1,1.4,0,2.1,0,.2,0,.4,0,.7.3-.3.5-.5.8-.8l-.4-2.3ZM334.9,245.3c-.1,0-.2.2-.3.2,0,.5,0,1.1,0,1.7,0,.3,0,.6,0,.9.2-.1.4-.3.6-.4l-.3-2.3ZM334.9,245.3c-.1,0-.2.2-.3.2,0,.5,0,1.1,0,1.7,0,.3,0,.6,0,.9.2-.1.4-.3.6-.4l-.3-2.3ZM306.9,247.6c-.1.7-.1,1.4,0,2.1,0,.2,0,.4,0,.7.3-.3.5-.5.8-.8l-.4-2.3c-.2.1-.3.3-.4.4ZM297.3,239.2c-2.1,1.4-3.9,2.7-5.3,3.8-1.5,1.1-2.7,2.2-3.7,3.3-1,1.1-1.6,2.1-1.8,3.2-.3,2.7-.4,4.1-.3,4.3.3,1.5,1.7,2.1,4.2,1.8,1.2-.1,3-1.2,5.5-3.3-.7-1-1.1-2-1.2-3-.2-1.5-.1-3,.3-4.6.5-1.6,1.2-3.4,2.3-5.6ZM280.5,250.7c0,.3,0,.6,0,.9,0,.5.2,1,.4,1.5.1-.2.3-.3.5-.5l-.5-2.3c-.1.1-.3.3-.4.4ZM270.5,242.5c-2,1.5-3.8,2.8-5.2,4-1.4,1.2-2.6,2.3-3.5,3.4-.9,1.1-1.5,2.2-1.7,3.2-.1,2.7-.2,4.1-.2,4.3.3,1.5,1.7,2.1,4.3,1.7,1.2-.2,3-1.3,5.4-3.4-.7-1-1.1-2-1.4-3-.3-1.4-.3-3,.1-4.6.4-1.6,1.1-3.5,2.1-5.6ZM254.2,254.4c0,.4,0,.8.1,1.1.1.5.2,1,.4,1.5.2-.2.4-.4.6-.7l-.6-2.4c-.1.1-.3.3-.5.5ZM383.2,183.9c-11.6-87.1-86.4-154.4-176.7-154.4S35,102.9,28.7,195.5c-4.5-2-9.2-4.1-14-6.4l-7,107.8c21.5,10,41,16,57.9,19.7,32.6,42.1,83.7,69.2,141,69.2s130-40.1,159.3-98.3c16.4.6,29.2,6.2,37,8.4l3.6-109.6c-5.9-.6-13.8-1.6-23.3-2.4ZM374.9,188.3c1.2,0,2.1,1.1,2.1,2.4l-.4,5.7c0,1.2-1.1,2.1-2.4,2.1h-1.1c-1.2-.2-2.1-1.2-2.1-2.4l.4-5.7c0-1.2,1.1-2.1,2.4-2.1h1.1ZM55,136.6c2.3,5.7,6.2,13.2,12.7,20.6,6.8,7.7,29.8,20.1,26.5,15.5-5.7-8,.6-11.1-2.8-12.6-2.2-1-4.9,1.7-5.9.7-1.6-1.5,4.3-8.4,2.8-10.4-.8-.9-3.5,5.6-12,3.3-2.4-5,2.6-17,5.6-18.5,4.8-2.5,17.6,5.6,15.9,0-1.9-6.3,9.6-7,10.2-14.4.6-8.7,7.9-5,10.9-10.7,2.3-4.4,4.5-8.8,7-10.2,4.7-2.5,9.1,1.1,11.6-1.3,1-1,1.7-3.2,0-8.4-.9-6.4-2.3-8-3.5-8.2-2-.3-3.3,1.8-5.7,1.5-2.7-.3-2.9-3.8-5.4-4.4-4.5-1.2-9.9,14.7-15.7,13.9-2.9-.4-6.8-7.4-5.3-8.9,6.6-6,24.5-14.8,20.4-15.8-.9-.2-2.4-.9-5.9-1.7,7.4-4.7,15.2-8.9,23.3-12.5,0,0,0-.1,0-.2,0-.4.4-1.4,6.1-2.4,18.8-7.4,39.3-11.4,60.7-11.4s52.1,6.3,74.5,17.5c-1.9,1.9-3.7,6.2-8.4,6.2-10.8,0-7.3,7.8-14.7,12.2-1.9,9.1,7.4,14.7,7.4,22-.6.4-1.6.9-3,1-2.4.2-3.6-1-4.4-.8-.7.2-1.2,1.4-1.2,4.9s.3,6.9,1.2,13.2c0,0-3.3-.6-9.4-3.9,0,0-8.6,2.6-12.8,3.7-2.5.7-3.7,5-2.8,6.2,1.6,2.2,7.7-1,10.8,1.7,1.7,1.4-1.7,3.9,0,14.4,7.8,16.1,8.9,20.8,12.2,28.3,3.4,7.8,15.8-11.3,16.9-17.5.8-4.3-6.4-7.8-11.9-6.4-.3,0-.8.2-1.2-.1-.5-.3-.7-1-.7-2,0-1.9.8-4.8,1.7-7.3,4.6,2.3,3.4,6.2,5.8,8,2.8,2.2,7.5-.4,10.8.3,3,.6,2.5,3.1,6.1,5,3.1,1.7,6.8-.1,6.9,1.8.8,10.9,8.5,26.5,9.2,26.7,3.6,1.7-.3-7.2,4.4-17.2,2.9-6.2,7.1-8.6,10-8.7,2.8-.2,1.5,3.5,6.4,10.1.5.6,2.9,1.5,5.4,4.8,0-.2.1-.3.2-.4l2.4,2.5c-.2.3-.4.6-.5,1,10.5,17.7,15.3-8.8,5.7-11.3-.1-.8,2.2-8,2.2-8,2-.8,4.9-1.8,8.6-1.9,3.2,0,3.9.6,5,0,4.3-2.4,3.5-17.5-3.6-21.9-2.9-1.8-5.8-1.1-6.2-2.6-.4-1.2,3-4.5,6.2-7.2,13.6,20.2,22.8,43.5,26.5,68.6-6.5-.2-13.5-.2-21,.2.7-2.3,1.6-4.2.2-5.9-1.6-1.9-8.3,2-10.2,6.7-2.3.2-4.5.5-6.8.7-.4-1.5-1.6-4.2-2.8-6.2-2.5-4.2-4.4-5.4-4.5-8.2,0-1.1.3-2.2.6-3-.1-.2-.3-.5-.4-.7-.5-.9-1-1.7-1.6-2.4-.6,1.6-2,6.1.2,10.1.5,1,1.2,1.8,1.8,2.4.3,1.4.9,3.5,2.4,5.6.7.9,1.6,1.9,2.4,2.5-.9,0-1.7.2-2.5.3-1.4-1.6-1.6-2.2-3.1-5-.6-1-3.1-1.1-3.2,0,0,1.1.5,3.2,1.4,5.6-28.8,3.5-53.4,7.7-75.9,11.9,5.8-12.7,17.5-27.8,15.9-29.4-.9-.9-7.4,6.6-9.7,2.8-1.7-2.8-3.8-4.7-5.6-10.5-6.3-20.8-10.9-25.3-12.5-26.6-3.3-2.9-8-5.4-10.3-3.9-1.7,1.1-.3,5.2-2.5,5-5.5-.6-6.9-1.4-11.4-4.4-3.7-2.6.3-6.8-1.6-8.9-3.2-3.5-14.8.3-22.3,6.9-6.3,5.6-8.7,12.3-9.7,15.3-2.4,7-2.1,13-1.9,16.7.2,3.5.4,6.7,1.9,10.5,1.5,3.6,3.6,9,8.1,10.5,6.6,2.4,11.6-6,18.9-3.3,2.7,1,5.1,3.2,6.1,5.8,1.5,3.8-1,5.3-.3,10,.8,4.9,4,6.1,5.3,9.5-21.9,4.1-42.6,7.5-64.4,9.4,1.4-5,1.7-10.1-.8-14-3-4.7-10.3,0-15.9-8.1-9.3-13.3-19.7-23.5-28.1-22.5-2.3.3-5.6,1.7-9.2,8-.1,2.7-.5,6.7-1.4,11.5-.9,4.9-1.7,6.6-2,8.6-.5,4,.9,9.8,9.3,17.8-3.1,0-6.2-.2-9.3-.4-13.8-.8-33.3-5.1-56.5-14.3,1-22.6,6.6-44,15.7-63.3ZM364.7,190.7l-.4,5.7c0,1.2-1.1,2.1-2.4,2.1h-1.1c-1.2-.2-2.2-1.2-2.1-2.4l.4-5.7c0-1.2,1.1-2.1,2.4-2.1h1.1c1.2.2,2.1,1.2,2.1,2.4ZM349.7,223.6c1.1-1.3,2.3-1.9,3.5-2,.8,0,1.5.2,2.1.6.6.4.9,1,.9,1.8,0,1-.5,2.1-1.6,3.4-1.1,1.2-2.3,1.9-3.6,1.9-.7,0-1.4-.2-2-.6-.6-.4-1-1-1-1.6,0-1,.5-2.2,1.6-3.5ZM346.5,196l.4-5.7c0-1.2,1.1-2.1,2.4-2.1h1.1c1.2.2,2.1,1.2,2.1,2.4l-.4,5.7c0,1.2-1.1,2.1-2.4,2.1h-1.1c-1.2-.2-2.2-1.2-2.1-2.4ZM340,191.5l-.4,5.7c0,1.2-1.1,2.1-2.4,2.1h-.8c-1.2-.1-2.2-1.2-2.1-2.4l.4-5.7c0-1.2,1.1-2.1,2.4-2.1h.8c1.2.1,2.2,1.2,2.1,2.4ZM327.1,192.6l-.4,5.7c0,1.2-1.1,2.2-2.4,2.1h-.5c-1.2-.1-2.2-1.2-2.1-2.4l.4-5.7c0-1.2,1.1-2.1,2.4-2.1h.5c1.2.1,2.2,1.2,2.1,2.4ZM314.9,194.4l-.4,5.7c0,1.2-1.1,2.2-2.4,2.1h-.6c-1.2-.1-2.1-1.2-2.1-2.4l.4-5.7c0-1.2,1.1-2.1,2.4-2.1h.6c1.2.1,2.1,1.2,2.1,2.4ZM302.2,195.7l-.4,5.7c0,1.2-1.1,2.1-2.4,2.1h-.6c-1.2-.1-2.1-1.2-2.1-2.4l.4-5.7c0-1.2,1.1-2.2,2.4-2.1h.6c1.2.1,2.1,1.2,2.1,2.4ZM289.6,197.7l-.4,5.7c0,1.2-1.1,2.2-2.4,2.1h-.5c-1.2-.1-2.2-1.2-2.1-2.4l.4-5.7c0-1.2,1.1-2.1,2.4-2.1h.5c1.2.1,2.2,1.2,2.1,2.4ZM277.5,199.5l-.4,5.7c0,1.2-1.1,2.1-2.4,2.1h-.5c-1.2-.1-2.2-1.2-2.1-2.4l.4-5.7c0-1.2,1.1-2.2,2.4-2.1h.6c1.2.1,2.2,1.2,2.1,2.4ZM264.6,202.1l-.4,5.7c0,1.2-1.1,2.2-2.4,2.1h-.5c-1.2-.1-2.2-1.2-2.1-2.4l.4-5.7c0-1.2,1.1-2.1,2.4-2.1h.6c1.2.1,2.1,1.2,2.1,2.4ZM252.4,204.3l-.4,5.7c0,1.2-1.1,2.2-2.4,2.1h-.6c-1.2-.1-2.1-1.2-2.1-2.4l.4-5.7c0-1.2,1.1-2.1,2.4-2.1h.6c1.2.1,2.1,1.2,2.1,2.4ZM240,206.1l-.4,5.7c0,1.2-1.1,2.1-2.4,2.1h-.5c-1.2-.1-2.2-1.2-2.1-2.4l.4-5.7c0-1.2,1.1-2.2,2.4-2.1h.5c1.2.1,2.2,1.2,2.1,2.4ZM227.5,208.3l-.4,5.7c0,1.2-1.1,2.2-2.4,2.1h-.6c-1.2-.1-2.1-1.2-2.1-2.4l.4-5.7c0-1.2,1.1-2.1,2.4-2.1h.6c1.2.1,2.1,1.2,2.1,2.4ZM215.2,210.2l-.4,5.7c0,1.2-1.1,2.1-2.4,2.1h-.5c-1.2-.1-2.2-1.2-2.1-2.4l.4-5.7c0-1.2,1.1-2.2,2.4-2.1h.5c1.2.1,2.2,1.2,2.1,2.4ZM202.4,213.4l-.4,5.7c0,1.2-1.1,2.1-2.4,2.1h-.6c-1.2-.1-2.2-1.2-2.1-2.4l.4-5.7c0-1.2,1.1-2.2,2.4-2.1h.5c1.2.1,2.2,1.2,2.1,2.4ZM189.8,215.3l-.4,5.7c0,1.2-1.1,2.2-2.4,2.1h-.6c-1.2-.1-2.1-1.2-2.1-2.4l.4-5.7c0-1.2,1.1-2.1,2.4-2.1h.6c1.2.1,2.1,1.2,2.1,2.4ZM172.4,221.6l.4-5.7c0-1.2,1.1-2.2,2.4-2.1h.5c1.2.1,2.2,1.2,2.1,2.4l-.4,5.7c0,1.2-1.1,2.1-2.4,2.1h-.6c-1.2-.1-2.2-1.2-2.1-2.4ZM174.4,305.7v5.4c0,1.6-1.3,2.8-2.9,2.8s-2.9-1.3-2.9-2.8v-5.4c0-1.6,1.3-2.8,2.9-2.8s1.5.3,2,.8c.5.5.8,1.2.8,2ZM147.8,291.2c-1.3,2-2,3.2-2.2,3.5-.6.9-1.1,1.8-1.5,2.5-.5.8-.8,1.4-1.2,1.8-.3.4-.6.7-.9.7-.6,0-1.2-.3-1.8-1.2-.6-.9-1-1.7-1.2-2.4-.1-.7,0-1.3,0-1.8,1.2-4,4.4-11.1,9.4-21.2l-6.3,6.2c-3,3-5.1,4.6-6.2,4.8-1.1.1-2.4-.7-4-2.6-1.6-1.9-2.5-3.6-2.9-5.1-.3-1.3-.2-2.4,0-3.4.3-1,.9-2.3,1.8-3.9,1.3-2.2,2.6-4.1,3.8-5.6,1.3-1.6,2.4-2.8,3.4-3.7,1-.9,1.8-1.4,2.2-1.5.7,0,1.5.1,2.4.7.8.5,1.3,1.2,1.4,1.9,0,.4-.1,1.2-.7,2.3-.6,1.1-1.5,2.4-2.8,4.2-1.3,1.7-3.3,3.8-5.8,6.3l-.4,2c-.1.4-.2.7-.1,1,.1.6.6.9,1.3.8.8-.1,2.4-1.2,4.9-3.2,2.5-2,5.2-4.6,7.9-7.9,1.1-1.3,2-2.4,2.6-3.3.7-.9,1.3-1.8,1.8-2.6.5-.8,1-1.4,1.4-1.9.4-.4.7-.7,1.1-.8.7-.2,1.3,0,1.8.5.5.5.9,1.3,1.1,2.4.1.6,0,1.4-.5,2.5-.5,1-1.4,2.8-2.8,5.3-1.4,2.5-2.7,5.1-4,7.7-1.3,2.6-2.6,5.6-3.9,8.9,0,0,.8-.9,2.1-2.4,1.3-1.5,2.8-3.1,4.3-4.8,1.5-1.7,2.7-3,3.7-4,1-1,2.2-2.2,3.7-3.6l.5,2.3c-3,3.8-5.8,7.5-8.2,10.9-2.4,3.4-4.2,6.1-5.5,8.1ZM150.7,308.1l-.4,5.7c0,1.2-1.1,2.1-2.4,2.1h-.5c-1.2-.1-2.2-1.2-2.1-2.4l.4-5.7c0-1.2,1.1-2.2,2.4-2.1h.6c1.2.1,2.2,1.2,2.1,2.4ZM138.8,308.3l-.4,5.7c0,1.2-1.1,2.2-2.4,2.1h-1.9c-1.2-.2-2.2-1.3-2.1-2.5l.4-5.7c0-1.2,1.1-2.2,2.4-2.1h1.9c1.2.2,2.2,1.3,2.1,2.5ZM135.9,225.8l.4-5.7c0-1.2,1.1-2.2,2.4-2.1h.5c1.2.1,2.2,1.2,2.1,2.4l-.4,5.7c0,1.2-1.1,2.1-2.4,2.1h-.5c-1.2-.1-2.2-1.2-2.1-2.4ZM148.2,224.7l.4-5.7c0-1.2,1.1-2.1,2.4-2.1h.5c1.2.1,2.2,1.2,2.1,2.4l-.4,5.7c0,1.2-1.1,2.2-2.4,2.1h-.6c-1.2-.1-2.2-1.2-2.1-2.4ZM157.6,307c0-1.2,1-2.2,2.2-2.2h.5c1.2,0,2.2,1,2.2,2.2v5.7c0,1.2-1,2.2-2.2,2.2h-.5c-1.2,0-2.2-1-2.2-2.2v-5.7ZM160.6,224v-5.7c0-1.2,1-2.2,2.2-2.2h.5c1.2,0,2.2,1,2.2,2.2v5.7c0,1.2-1,2.2-2.2,2.2h-.5c-1.2,0-2.2-1-2.2-2.2ZM128.9,220.2v5.7c0,1.2-1,2.2-2.2,2.2h-.6c-1.2,0-2.2-1-2.2-2.2v-5.7c0-1.2,1-2.2,2.2-2.2h.6c1.2,0,2.2,1,2.2,2.2ZM117.2,220.5l-.4,5.7c0,1.2-1.1,2.1-2.4,2.1h-.5c-1.2-.1-2.2-1.2-2.1-2.4l.4-5.7c0-1.2,1.1-2.2,2.4-2.1h.6c1.2.1,2.1,1.2,2.1,2.4ZM105.2,220.5l-.4,5.7c0,1.2-1.1,2.1-2.4,2.1h-.6c-1.2-.1-2.1-1.2-2.1-2.4l.4-5.7c0-1.2,1.1-2.2,2.4-2.1h.6c1.2.1,2.1,1.2,2.1,2.4ZM93.1,219.2v5.7c0,1.2-1,2.2-2.2,2.2h-.6c-1.2,0-2.2-1-2.2-2.2v-5.7c0-1.2,1-2.2,2.2-2.2h.6c1.2,0,2.2,1,2.2,2.2ZM81,217.5v5.7c0,1.2-1,2.2-2.2,2.2h-.6c-1.2,0-2.2-1-2.2-2.2v-5.7c0-1.2,1-2.2,2.2-2.2h.6c1.2,0,2.2,1,2.2,2.2ZM69.1,215.2v5.7c0,1.2-1,2.2-2.2,2.2h-.6c-1.2,0-2.2-1-2.2-2.2v-5.7c0-1.2,1-2.2,2.2-2.2h.6c1.2,0,2.2,1,2.2,2.2ZM57.8,213.2v5.7c0,1.2-1,2.2-2.2,2.2h-.6c-1.2,0-2.2-1-2.2-2.2v-5.7c0-1.2,1-2.2,2.2-2.2h.6c1.2,0,2.2,1,2.2,2.2ZM19.4,294.2c0,1.2-1,2.2-2.2,2.2h-.6c-1.2,0-2.2-1-2.2-2.2v-5.7c0-1.2,1-2.2,2.2-2.2h.6c1.2,0,2.2,1,2.2,2.2v5.7ZM23.3,205.4c0,1.2-1,2.2-2.2,2.2h-.6c-1.2,0-2.2-1-2.2-2.2v-5.7c0-1.2,1-2.2,2.2-2.2h.6c1.2,0,2.2,1,2.2,2.2v5.7ZM31.5,299.4c0,1.2-1.1,2.1-2.4,2.1h-1.2c-1.2-.2-2.1-1.2-2.1-2.4l.4-5.7c0-1.2,1.1-2.2,2.4-2.1h1.2c1.2.2,2.2,1.2,2.1,2.4l-.4,5.7ZM34.4,210.6c0,1.2-1.1,2.1-2.4,2.1h-.6c-1.2-.1-2.2-1.2-2.1-2.4l.4-5.7c0-1.2,1.1-2.2,2.4-2.1h.5c1.2.1,2.2,1.2,2.1,2.4l-.4,5.7ZM42.4,302.5c0,1.2-1,2.2-2.2,2.2h-.5c-1.2,0-2.2-1-2.2-2.2v-5.7c0-1.2,1-2.2,2.2-2.2h.5c1.2,0,2.2,1,2.2,2.2v5.7ZM46.3,214.7c0,1.2-1,2.2-2.2,2.2h-.5c-1.2,0-2.2-1-2.2-2.2v-5.7c0-1.2,1-2.2,2.2-2.2h.5c1.2,0,2.2,1,2.2,2.2v5.7ZM54.9,305.7c0,1.2-1,2.2-2.2,2.2h-.6c-1.2,0-2.2-1-2.2-2.2v-5.7c0-1.2,1-2.2,2.2-2.2h.6c1.2,0,2.2,1,2.2,2.2v5.7ZM66.2,307.7c0,1.2-1,2.2-2.2,2.2h-.6c-1.2,0-2.2-1-2.2-2.2v-5.7c0-1.2,1-2.2,2.2-2.2h.6c1.2,0,2.2,1,2.2,2.2v5.7ZM78.1,310c0,1.2-1,2.2-2.2,2.2h-.6c-1.2,0-2.2-1-2.2-2.2v-5.7c0-1.2,1-2.2,2.2-2.2h.6c1.2,0,2.2,1,2.2,2.2v5.7ZM82.1,290.1c-.8,0-1.5-.6-2.2-1.9-.7-1.3-1.1-2.7-1.2-4.2,0-.9.2-1.9.8-3,.6-1.1,2-3,4.2-5.9,2.2-2.8,3.9-5.2,5.3-7.2,1.4-1.9,2.9-4.3,4.6-7,1.2-1.9,2-3.4,2.5-4.5.5-1.1.8-2.1.7-2.9,0-.7-.3-1.1-.8-1-1.1,0-2.9,1.4-5.7,3.9-2.7,2.5-6,6.2-10,11.1-3.9,4.9-8,10.5-12.1,16.9-1.4,2.2-2.3,3.6-2.9,4.4-.6.8-1.3,1.2-2,1.2-1,0-2-.8-2.9-2.4-1-1.7-1.5-3.1-1.6-4.1,0-.3.1-.7.4-1.2,3.3-4.3,6.1-7.9,8.2-10.9,2.1-3,4-5.8,5.6-8.5,1.6-2.7,2.8-4.8,3.5-6.6.7-1.7,1-3,.9-4,0-1-.7-1.5-1.7-1.4-.9,0-2.4.6-4.4,1.7-2.1,1.1-4.7,2.5-7.8,4.3-3.1,1.8-5.6,3.2-7.5,4.2-1.9,1-3.3,1.5-4.3,1.5-.9,0-1.4-.4-1.5-1.2,0-.5,0-1.6.3-3.4s.5-3,.9-3.8c.5-1,1.9-2.3,4.2-3.9,2.3-1.7,3.5-2.5,3.8-2.5.2,0,.3,0,.4.2,0,0,0,.2-.3.4-1.1.8-1.9,1.5-2.4,2-.5.5-.8,1.1-.9,1.7,4.9-2.8,9.3-5,13.2-6.6,3.9-1.5,6.6-2.4,8.2-2.5.8,0,1.5.4,2.3,1.2.8.8,1.4,1.8,2,2.9.6,1.1.9,1.8.9,2.2,0,1.2-.1,2.6-.7,4.3-.6,1.7-1.4,3.6-2.5,5.8-1.1,2.2-2.4,5-4,8.3,1.3-1.6,2.6-3.2,3.8-4.5,1.2-1.4,2.4-2.8,3.6-4.1,1.2-1.3,2.4-2.7,3.6-4,1.7-1.8,3.6-3.6,5.7-5.3,2.1-1.7,4.1-3.1,6-4.2,1.9-1.1,3.2-1.7,3.9-1.7,1,0,1.9.3,2.7,1.2.8.9,1.3,1.8,1.4,2.8,0,.7-.4,2-1.3,3.9-.9,2-2.3,4.5-4,7.6-1.8,3.1-4.2,7.1-7.1,11.9,2.9-3,6-6.1,9.2-9.2,3.2-3.2,5.5-5.5,7.1-6.9,1.6-1.5,2.9-2.6,3.9-3.4,1.4-1.1,2.9-2.2,4.3-3.4,1.4-1.2,2.6-2.2,3.4-2.9.8-.7,1.6-1.2,2.3-1.6.7-.4,1.3-.6,1.9-.6.7,0,1.7.6,2.9,1.9,1.2,1.3,1.8,2.2,1.9,2.6,0,.5-.2,1.1-.8,1.8-.6.7-1.9,2-3.8,4-3.5,3.6-6.5,7.2-9,10.8-2.5,3.6-4.3,6.9-5.5,9.8-1.2,2.9-1.7,5.2-1.6,6.9,0,1,.4,1.8.9,2.2.5.4,1.2.6,2.2.6.9,0,1.7-.2,2.4-.6.7-.3,1.6-.8,2.4-1.3.9-.6,1.7-1.1,2.5-1.6,1.1-.6,2.2-1.3,3.3-2,1.1-.7,1.9-1.3,2.5-1.7.6-.4,1-.7,1.3-.9l.2,2.4c-2.5,2.2-4.6,4-6.3,5.4-1.7,1.4-3.5,2.6-5.2,3.7-1.8,1.1-3.2,1.9-4.4,2.4-1.2.5-2.2.8-3,.8-2.1.1-3.8-.4-5.2-1.6s-2.2-2.8-2.4-4.8c-.2-2.3.2-4.7,1.1-7,.9-2.3,2.4-4.8,4.2-7.3,1.9-2.5,4.3-5.4,7.2-8.6,2.2-2.4,3.2-3.7,3.2-3.9,0-.2,0-.3-.2-.4-.1-.1-.3-.2-.5-.1-.5,0-2.1,1.1-4.6,3.2-2.6,2.1-5.8,5.2-9.8,9.2-4,4-8.2,8.8-12.7,14.3-.3.3-1.1,1.3-2.4,3-1.4,1.7-2.3,2.8-2.9,3.3-.6.5-1.1.8-1.5.8ZM126,308v5.7c0,1.2-1,2.2-2.2,2.2h-.6c-1.2,0-2.2-1-2.2-2.2v-5.7c0-1.2,1-2.2,2.2-2.2h.6c1.2,0,2.2,1,2.2,2.2ZM114.3,308.2l-.4,5.7c0,1.2-1.1,2.1-2.4,2.1h-.5c-1.2-.1-2.2-1.2-2.1-2.4l.4-5.7c0-1.2,1.1-2.2,2.4-2.1h.6c1.2.1,2.2,1.2,2.1,2.4ZM102.3,306.3l-.4,5.7c0,1.2-1.1,2.1-2.4,2.1h-.6c-1.2-.1-2.1-1.2-2.1-2.4l.4-5.7c0-1.2,1.1-2.2,2.4-2.1h.6c1.2.1,2.1,1.2,2.1,2.4ZM90.1,306v5.7c0,1.2-1,2.2-2.2,2.2h-.6c-1.2,0-2.2-1-2.2-2.2v-5.7c0-1.2,1-2.2,2.2-2.2h.6c1.2,0,2.2,1,2.2,2.2ZM206.6,375.1c-49.3,0-93.7-21.4-124.4-55.4,7.9,1.2,14.9,1.9,21.1,2.2,94.5,5.8,155.5-30.4,250.3-34.2-28.4,52-83.7,87.4-147,87.4ZM181.7,308.5l.4-5.7c0-1.2,1.1-2.2,2.4-2.1h.6c1.2.1,2.1,1.2,2.1,2.4l-.4,5.7c0,1.2-1.1,2.1-2.4,2.1h-.6c-1.2-.1-2.1-1.2-2.1-2.4ZM193.8,305.5l.4-5.7c0-1.2,1.1-2.1,2.4-2.1h.6c1.2.1,2.1,1.2,2.1,2.4l-.4,5.7c0,1.2-1.1,2.2-2.4,2.1h-.5c-1.2-.1-2.2-1.2-2.1-2.4ZM207.1,303.5v-5.7c0-1.2,1-2.2,2.2-2.2h.6c1.2,0,2.2,1,2.2,2.2v5.7c0,1.2-1,2.2-2.2,2.2h-.6c-1.2,0-2.2-1-2.2-2.2ZM218.8,300.5l.4-5.7c0-1.2,1.1-2.2,2.4-2.1h.6c1.2.1,2.1,1.2,2.1,2.4l-.4,5.7c0,1.2-1.1,2.1-2.4,2.1h-.6c-1.2-.1-2.1-1.2-2.1-2.4ZM230.9,298.3l.4-5.7c0-1.2,1.1-2.1,2.4-2.1h.6c1.2.1,2.1,1.2,2.1,2.4l-.4,5.7c0,1.2-1.1,2.2-2.4,2.1h-.6c-1.2-.1-2.1-1.2-2.1-2.4ZM243.4,295.8l.4-5.7c0-1.2,1.1-2.1,2.4-2.1h1.4c1.2.2,2.2,1.2,2.1,2.5l-.4,5.7c0,1.2-1.1,2.2-2.4,2.1h-1.4c-1.2-.2-2.1-1.2-2.1-2.5ZM255.7,293.3l.4-5.7c0-1.2,1.1-2.2,2.4-2.1h.6c1.2.1,2.1,1.2,2.1,2.4l-.4,5.7c0,1.2-1.1,2.1-2.4,2.1h-.6c-1.2-.1-2.1-1.2-2.1-2.4ZM268.2,290.7l.4-5.7c0-1.2,1.1-2.1,2.4-2.1h.5c1.2.1,2.2,1.2,2.1,2.4l-.4,5.7c0,1.2-1.1,2.2-2.4,2.1h-.5c-1.2-.1-2.2-1.2-2.1-2.4ZM280.3,288.9l.4-5.7c0-1.2,1.1-2.2,2.4-2.1h.5c1.2.1,2.2,1.2,2.1,2.4l-.4,5.7c0,1.2-1.1,2.2-2.4,2.1h-.5c-1.2-.1-2.2-1.2-2.1-2.4ZM292.9,286.9l.4-5.7c0-1.2,1.1-2.1,2.4-2.1h.6c1.2.1,2.1,1.2,2.1,2.4l-.4,5.7c0,1.2-1.1,2.2-2.4,2.1h-.6c-1.2-.1-2.1-1.2-2.1-2.4ZM305.6,285.6l.4-5.7c0-1.2,1.1-2.2,2.4-2.1h.6c1.2.1,2.1,1.2,2.1,2.4l-.4,5.7c0,1.2-1.1,2.2-2.4,2.1h-.6c-1.2-.1-2.1-1.2-2.1-2.4ZM317.8,283.8l.4-5.7c0-1.2,1.1-2.2,2.4-2.1h.5c1.2.1,2.2,1.2,2.1,2.4l-.4,5.7c0,1.2-1.1,2.1-2.4,2.1h-.6c-1.2-.1-2.2-1.2-2.1-2.4ZM330.5,282.7l.4-5.7c0-1.2,1.1-2.1,2.4-2.1h.8c1.2.1,2.2,1.2,2.1,2.4l-.4,5.7c0,1.2-1.1,2.1-2.4,2.1h-.8c-1.2-.1-2.2-1.2-2.1-2.4ZM342.6,281.8l.4-5.7c0-1.2,1.1-2.1,2.4-2.1h1.1c1.2.2,2.1,1.2,2.1,2.4l-.4,5.7c0,1.2-1.1,2.2-2.4,2.1h-1.1c-1.2-.1-2.2-1.2-2.1-2.4ZM360.4,282.2c0,1.2-1.1,2.2-2.4,2.1h-1.1c-1.2-.1-2.2-1.2-2.1-2.4l.4-5.7c0-1.2,1.1-2.1,2.4-2.1h1.1c1.2.2,2.1,1.2,2.1,2.4l-.4,5.7ZM360.6,267.2c-2.1,1.8-4.3,3.2-6.4,4.4-2.1,1.1-3.6,1.7-4.6,1.6-.9,0-1.5-.3-1.9-.8-.4-.5-.5-1.2-.5-2.2,0-1.4.5-2.7,1.2-3.9.8-1.2,1.8-2.4,3.2-3.6,1.4-1.2,3.1-2.4,5-3.6,1.9-1.2,4.5-2.7,7.8-4.4-.3-1.7-.7-2.7-1.4-3.1-.7-.4-1.8-.9-3.3-1.3-1.5-.4-2.2-1.1-2.2-1.9,0-.9,5.4-4.2,16-10-1.7.2-3.7.5-5.9.8-2.3.3-4.4.5-6.5.5-1.5,1.8-2.9,3.5-4.2,4.8-.8.9-1.6,1.6-2.3,2.2v.5c-2.5,3-5,5.2-7.2,6.8-2.3,1.5-4.2,2.3-5.9,2.4-2.3,0-4-.9-5.2-2.8-1-1.7-1.7-3.6-1.9-5.6-1.2.9-2.1,1.5-2.9,1.9-.9.4-2,.7-3.4.8-.6,0-1.6-.2-3.1-.7-2.5,2.7-4.6,4.8-6.3,6.1-1.6,1.4-3,2.1-4.1,2.2-1.9.1-3.6-.7-5.2-2.5-1.4-1.6-2.3-3.5-2.6-5.5-1.2,1.2-2.3,2-3.1,2.5-1,.6-2.6,1-4.7,1.1-3,4-5.8,6.1-8.6,6.4-1.5.2-3,0-4.4-.8-1.4-.7-2.6-1.7-3.6-3.1-.7-1-1.3-2.1-1.6-3.3-1.3,1.4-2.4,2.3-3.3,2.9-1,.6-2.5,1-4.6,1.2-2.8,4-5.6,6.3-8.3,6.7-1.5.2-3,0-4.5-.7-1.4-.7-2.7-1.7-3.8-3-.8-1-1.4-2.1-1.8-3.3-1.9,2.2-3.5,4-4.8,5.4-1.5,1.5-3,3-4.6,4.3-1.5,1.3-2.9,2.3-4,2.9-1.1.6-2,1-2.9,1.1-2,.3-3.8,0-5.4-1-1.6-1-2.6-2.5-3.1-4.5-.6-2.3-.6-4.6,0-7.1.6-2.4,1.6-5,3-7.7,1.5-2.7,3.4-5.8,5.7-9.3,1.7-2.6,2.6-4,2.5-4.3,0-.2-.1-.3-.3-.4-.2,0-.3-.1-.5,0-.5,0-1.9,1.3-4.1,3.7-2.2,2.4-4.9,5.8-8.2,10.2-3.3,4.4-6.7,9.6-10.3,15.6-.2.3-.8,1.4-1.9,3.2-1.1,1.8-1.8,3-2.3,3.6-.5.6-.9.9-1.4,1-.8.1-1.6-.4-2.5-1.6-.9-1.2-1.5-2.5-1.9-4-.2-.9-.1-1.9.3-3.1.4-1.1,1.5-3.2,3.2-6.3,1.7-3,3.1-5.6,4.1-7.7,1.1-2.1,2.2-4.6,3.4-7.5.8-2,1.4-3.6,1.8-4.8.3-1.2.4-2.2.2-3-.2-.7-.5-1-1-.9-1,.2-2.7,1.7-5,4.5-2.3,2.8-5,6.8-8.1,12.1-3.1,5.3-6.2,11.3-9.3,18.1-1,2.3-1.7,3.9-2.2,4.7-.5.8-1.1,1.3-1.8,1.4-1,.2-2.1-.5-3.3-2.1-1.2-1.6-2-2.9-2.3-3.9,0-.3,0-.7.2-1.2,2.6-4.6,4.7-8.5,6.3-11.7,1.6-3.2,3-6.2,4.2-9,1.2-2.8,2-5.1,2.4-6.9.4-1.8.5-3.1.3-4.1-.2-1-.9-1.4-2-1.2-.9.1-2.2.9-4.1,2.2-1.9,1.3-4.2,3-7,5.2-2.8,2.2-5.1,3.8-6.8,5-1.7,1.2-3.1,1.9-4,2-.9.2-1.4-.2-1.7-1-.1-.5-.2-1.6-.2-3.4,0-1.8,0-3.1.3-3.8.3-1,1.5-2.5,3.5-4.4,2-1.9,3.1-2.9,3.4-2.9.2,0,.3,0,.4.2,0,0,0,.2-.2.5-.9,1-1.6,1.7-2,2.3-.4.6-.6,1.2-.6,1.8,4.4-3.4,8.4-6,12-8,3.6-2,6.2-3.1,7.7-3.4.8-.1,1.6.2,2.5.9.9.7,1.7,1.6,2.5,2.7.8,1,1.2,1.7,1.2,2.1.3,1.2.3,2.6,0,4.3-.3,1.7-.8,3.7-1.5,6-.7,2.3-1.5,5.2-2.6,8.6,1-1.8,2-3.4,3-4.9,1-1.5,1.9-3,2.9-4.4,1-1.4,1.9-2.9,2.9-4.4,1.4-2,2.9-4,4.8-5.9,1.8-1.9,3.6-3.6,5.3-4.9,1.7-1.3,2.9-2,3.5-2.2,1-.2,1.9.1,2.9.9,1,.8,1.6,1.6,1.8,2.6.2.7,0,2-.6,4.1-.6,2-1.5,4.7-2.8,8-1.3,3.3-3,7.5-5.1,12.6,2.4-3.3,5-6.7,7.6-10.2,2.6-3.5,4.6-6.1,5.9-7.7,1.3-1.6,2.4-2.9,3.3-3.8,1.3-1.2,2.5-2.5,3.8-3.9,1.2-1.4,2.2-2.4,2.9-3.2.7-.8,1.4-1.4,2-1.9.6-.5,1.2-.7,1.8-.8.7-.1,1.8.4,3.2,1.6,1.4,1.2,2.2,2,2.3,2.4.1.5,0,1.1-.5,1.9-.5.8-1.5,2.2-3.1,4.4-2.9,4-5.3,7.9-7.2,11.7-1.9,3.8-3.2,7.3-3.9,10.3-.7,3-.9,5.3-.5,7,.2,1,.6,1.7,1.2,2.1.6.4,1.3.5,2.3.3.9-.1,1.6-.4,2.3-.8.7-.4,1.4-.9,2.2-1.6.8-.7,1.5-1.3,2.2-1.9,1-.8,2-1.6,2.9-2.4,1-.8,1.7-1.5,2.2-2,.2-.2.5-.4.7-.6,0-1.2.2-2.5.8-4,.8-2,1.9-3.8,3.5-5.7,1.5-1.8,3.2-3.3,5.2-4.6,1.9-1.3,3.8-2,5.6-2.3,1.3-.2,2.3-.2,3.1,0,.8.2,1.3.6,1.4,1.2,0,.5-.1,1-.6,1.7,1.1,0,1.9.2,2.3.6.5.4.8,1.1,1.1,2.2.2,1.1.2,2.5,0,4.3-.3,1.8-.8,3.5-1.5,5.1l.9.5h.6c.5-.2.9-.3,1.3-.6.4-.3.8-.5,1.1-.8.3-.2.8-.7,1.6-1.4,0-1.3.3-2.6,1-4.2.9-1.9,2.1-3.8,3.7-5.6,1.6-1.8,3.4-3.3,5.3-4.5,2-1.2,3.9-1.9,5.7-2.1,1.3-.1,2.3,0,3.1.1.8.3,1.2.7,1.4,1.3,0,.5-.2,1-.7,1.7,1.1,0,1.9.3,2.3.7.5.4.8,1.1,1,2.3.2,1.1.1,2.5-.2,4.3-.3,1.8-.9,3.4-1.7,5l.8.5h.6c.5-.1.9-.3,1.3-.5.4-.3.8-.5,1.1-.8.3-.2.8-.7,1.7-1.4.4-2.7,2-5.8,5-9.5,1.1-1.4,2-2.4,2.7-2.9.7-.5,1.6-.8,2.5-.9.8,0,1.6,0,2.4.2.8.2,1.2.5,1.2.8.1,1.2-.6,2.9-2.2,5.3-1.6,2.4-3.5,4.5-5.8,6.3l-.4,3c0,.4,0,.8,0,1.3.1,1.3.8,1.8,2.1,1.7,1.2,0,3.9-2.3,8.1-6.5-.1-1.5.3-3.3,1.4-5.4,1.1-2.1,2.4-3.9,3.8-5.5,1.4-1.6,2.5-2.4,3.3-2.5,1.2,0,1.9.5,2,1.9,0,.8,0,1.8-.4,3-.3,1.2-.9,2.5-1.7,3.9-.8,1.4-1.7,2.9-2.9,4.4.8,1,1.6,1.5,2.3,1.4.6,0,1.3-.3,2-.7.6-.4,1.4-.9,2.3-1.6,0-.3,0-.6.2-1,.2-.8.4-1.5.7-2.1.3-.5.8-1.4,1.6-2.6,3.7-5.2,7.2-7.9,10.5-8,1.7,0,2.6.5,2.6,1.6,0,.7-.5,1.9-1.5,3.5-1,1.6-2,2.8-2.8,3.5-2.3,2-3.9,3.4-4.6,4.2-.7.8-1,1.7-1,2.7,0,.8.4,1.5,1.2,2.1.8.5,1.8.8,3,.8,1.3,0,2.7-.5,4.3-1.3,1.3-.7,3-1.8,5-3.3v-.3c1.6-1.3,3.2-3.1,4.9-5.5-1.6-.2-2.3-.8-2.3-1.6,0-.7.6-1.6,1.7-2.7,1.1-1.1,2.4-2.1,3.8-3,1.4-.9,2.6-1.3,3.4-1.3.9,0,1.4.4,1.3,1,0,.3,0,.4-.3.5-.2.1-.3.3-.4.6,0,.2.2.4.6.4,1.4,0,3.2-.2,5.3-.6,2.1-.4,3.6-.6,4.3-.6.6,0,1.1.5,1.2,1.5.5,2.7.7,4.2.7,4.5,0,.3-.2.6-.5.9-.4.3-1.4.8-3,1.6-1.6.8-3.1,1.6-4.5,2.4-1.4.8-3.2,1.8-5.4,3.2,1.5.6,2.5,1.3,3.2,2,.7.7,1.2,1.9,1.7,3.4l10.7-6.6v2.3c0,0-10.8,6.8-10.8,6.8-.4,2.2-1.4,4.5-3,6.7-1.6,2.3-3.5,4.3-5.7,6.1ZM372.7,282.2c0,1.2-1.1,2.2-2.4,2.1h-1.1c-1.2-.1-2.1-1.2-2.1-2.4l.4-5.7c0-1.2,1.1-2.1,2.4-2.1h1.1c1.2.2,2.1,1.2,2.1,2.4l-.4,5.7ZM385.3,283c0,1.2-1.1,2.1-2.4,2.1h-1.1c-1.2-.2-2.2-1.2-2.1-2.4l.4-5.7c0-1.2,1.1-2.1,2.4-2.1h1.1c1.2.2,2.1,1.2,2.1,2.4l-.4,5.7ZM389.2,197.2c0,1.2-1.1,2.1-2.4,2.1h-1.1c-1.2-.2-2.2-1.2-2.1-2.4l.4-5.7c0-1.2,1.1-2.2,2.4-2.1h1.1c1.2.1,2.1,1.2,2.1,2.4l-.4,5.7ZM397.6,284.8c0,1.2-1.1,2.2-2.4,2.1h-1.1c-1.2-.2-2.2-1.2-2.1-2.4l.4-5.7c0-1.2,1.1-2.2,2.4-2.1h1.1c1.2.1,2.1,1.2,2.1,2.4l-.4,5.7ZM401.5,198c0,1.2-1.1,2.2-2.4,2.1h-1.1c-1.2-.1-2.1-1.2-2.1-2.4l.4-5.7c0-1.2,1.1-2.1,2.4-2.1h1.1c1.2.2,2.1,1.2,2.1,2.4l-.4,5.7ZM353.1,265.8c-1.4,1.3-2.1,2-2.1,2.3,0,.5.3.8.8.8,1,0,2.3-.4,3.9-1.3,1.6-.9,3.2-2.2,4.8-3.9,1.6-1.7,2.7-3.6,3.5-5.7-2,1.1-4,2.4-5.9,3.8-1.9,1.4-3.6,2.7-5,4ZM353.7,245.5v2.3c.3-.3.7-.6,1.1-1v-2c-.4.3-.7.5-1.1.7ZM334.9,245.3c-.1,0-.2.2-.3.2,0,.5,0,1.1,0,1.7,0,.3,0,.6,0,.9.2-.1.4-.3.6-.4l-.3-2.3ZM307.4,247.3c-.2.1-.3.3-.4.4-.1.7-.1,1.4,0,2.1,0,.2,0,.4,0,.7.3-.3.5-.5.8-.8l-.4-2.3ZM288.3,246.3c-1,1.1-1.6,2.1-1.8,3.2-.3,2.7-.4,4.1-.3,4.3.3,1.5,1.7,2.1,4.2,1.8,1.2-.1,3-1.2,5.5-3.3-.7-1-1.1-2-1.2-3-.2-1.5-.1-3,.3-4.6.5-1.6,1.2-3.4,2.3-5.6-2.1,1.4-3.9,2.7-5.3,3.8-1.5,1.1-2.7,2.2-3.7,3.3ZM280.9,250.4c-.1.1-.3.3-.4.4,0,.3,0,.6,0,.9,0,.5.2,1,.4,1.5.1-.2.3-.3.5-.5l-.5-2.3ZM261.8,249.9c-.9,1.1-1.5,2.2-1.7,3.2-.1,2.7-.2,4.1-.2,4.3.3,1.5,1.7,2.1,4.3,1.7,1.2-.2,3-1.3,5.4-3.4-.7-1-1.1-2-1.4-3-.3-1.4-.3-3,.1-4.6.4-1.6,1.1-3.5,2.1-5.6-2,1.5-3.8,2.8-5.2,4-1.4,1.2-2.6,2.3-3.5,3.4ZM254.7,253.9c-.1.1-.3.3-.5.5,0,.4,0,.8.1,1.1.1.5.2,1,.4,1.5.2-.2.4-.4.6-.7l-.6-2.4ZM254.7,253.9c-.1.1-.3.3-.5.5,0,.4,0,.8.1,1.1.1.5.2,1,.4,1.5.2-.2.4-.4.6-.7l-.6-2.4ZM268.5,248.2c.4-1.6,1.1-3.5,2.1-5.6-2,1.5-3.8,2.8-5.2,4-1.4,1.2-2.6,2.3-3.5,3.4-.9,1.1-1.5,2.2-1.7,3.2-.1,2.7-.2,4.1-.2,4.3.3,1.5,1.7,2.1,4.3,1.7,1.2-.2,3-1.3,5.4-3.4-.7-1-1.1-2-1.4-3-.3-1.4-.3-3,.1-4.6ZM280.9,250.4c-.1.1-.3.3-.4.4,0,.3,0,.6,0,.9,0,.5.2,1,.4,1.5.1-.2.3-.3.5-.5l-.5-2.3ZM295,244.7c.5-1.6,1.2-3.4,2.3-5.6-2.1,1.4-3.9,2.7-5.3,3.8-1.5,1.1-2.7,2.2-3.7,3.3-1,1.1-1.6,2.1-1.8,3.2-.3,2.7-.4,4.1-.3,4.3.3,1.5,1.7,2.1,4.2,1.8,1.2-.1,3-1.2,5.5-3.3-.7-1-1.1-2-1.2-3-.2-1.5-.1-3,.3-4.6ZM307.4,247.3c-.2.1-.3.3-.4.4-.1.7-.1,1.4,0,2.1,0,.2,0,.4,0,.7.3-.3.5-.5.8-.8l-.4-2.3ZM334.9,245.3c-.1,0-.2.2-.3.2,0,.5,0,1.1,0,1.7,0,.3,0,.6,0,.9.2-.1.4-.3.6-.4l-.3-2.3ZM334.9,245.3c-.1,0-.2.2-.3.2,0,.5,0,1.1,0,1.7,0,.3,0,.6,0,.9.2-.1.4-.3.6-.4l-.3-2.3ZM307.4,247.3c-.2.1-.3.3-.4.4-.1.7-.1,1.4,0,2.1,0,.2,0,.4,0,.7.3-.3.5-.5.8-.8l-.4-2.3ZM295,244.7c.5-1.6,1.2-3.4,2.3-5.6-2.1,1.4-3.9,2.7-5.3,3.8-1.5,1.1-2.7,2.2-3.7,3.3-1,1.1-1.6,2.1-1.8,3.2-.3,2.7-.4,4.1-.3,4.3.3,1.5,1.7,2.1,4.2,1.8,1.2-.1,3-1.2,5.5-3.3-.7-1-1.1-2-1.2-3-.2-1.5-.1-3,.3-4.6ZM280.9,250.4c-.1.1-.3.3-.4.4,0,.3,0,.6,0,.9,0,.5.2,1,.4,1.5.1-.2.3-.3.5-.5l-.5-2.3ZM268.5,248.2c.4-1.6,1.1-3.5,2.1-5.6-2,1.5-3.8,2.8-5.2,4-1.4,1.2-2.6,2.3-3.5,3.4-.9,1.1-1.5,2.2-1.7,3.2-.1,2.7-.2,4.1-.2,4.3.3,1.5,1.7,2.1,4.3,1.7,1.2-.2,3-1.3,5.4-3.4-.7-1-1.1-2-1.4-3-.3-1.4-.3-3,.1-4.6ZM254.7,253.9c-.1.1-.3.3-.5.5,0,.4,0,.8.1,1.1.1.5.2,1,.4,1.5.2-.2.4-.4.6-.7l-.6-2.4ZM254.7,253.9c-.1.1-.3.3-.5.5,0,.4,0,.8.1,1.1.1.5.2,1,.4,1.5.2-.2.4-.4.6-.7l-.6-2.4ZM268.5,248.2c.4-1.6,1.1-3.5,2.1-5.6-2,1.5-3.8,2.8-5.2,4-1.4,1.2-2.6,2.3-3.5,3.4-.9,1.1-1.5,2.2-1.7,3.2-.1,2.7-.2,4.1-.2,4.3.3,1.5,1.7,2.1,4.3,1.7,1.2-.2,3-1.3,5.4-3.4-.7-1-1.1-2-1.4-3-.3-1.4-.3-3,.1-4.6ZM280.9,250.4c-.1.1-.3.3-.4.4,0,.3,0,.6,0,.9,0,.5.2,1,.4,1.5.1-.2.3-.3.5-.5l-.5-2.3ZM295,244.7c.5-1.6,1.2-3.4,2.3-5.6-2.1,1.4-3.9,2.7-5.3,3.8-1.5,1.1-2.7,2.2-3.7,3.3-1,1.1-1.6,2.1-1.8,3.2-.3,2.7-.4,4.1-.3,4.3.3,1.5,1.7,2.1,4.2,1.8,1.2-.1,3-1.2,5.5-3.3-.7-1-1.1-2-1.2-3-.2-1.5-.1-3,.3-4.6ZM295,244.7c.5-1.6,1.2-3.4,2.3-5.6-2.1,1.4-3.9,2.7-5.3,3.8-1.5,1.1-2.7,2.2-3.7,3.3-1,1.1-1.6,2.1-1.8,3.2-.3,2.7-.4,4.1-.3,4.3.3,1.5,1.7,2.1,4.2,1.8,1.2-.1,3-1.2,5.5-3.3-.7-1-1.1-2-1.2-3-.2-1.5-.1-3,.3-4.6ZM280.9,250.4c-.1.1-.3.3-.4.4,0,.3,0,.6,0,.9,0,.5.2,1,.4,1.5.1-.2.3-.3.5-.5l-.5-2.3ZM268.5,248.2c.4-1.6,1.1-3.5,2.1-5.6-2,1.5-3.8,2.8-5.2,4-1.4,1.2-2.6,2.3-3.5,3.4-.9,1.1-1.5,2.2-1.7,3.2-.1,2.7-.2,4.1-.2,4.3.3,1.5,1.7,2.1,4.3,1.7,1.2-.2,3-1.3,5.4-3.4-.7-1-1.1-2-1.4-3-.3-1.4-.3-3,.1-4.6ZM254.7,253.9c-.1.1-.3.3-.5.5,0,.4,0,.8.1,1.1.1.5.2,1,.4,1.5.2-.2.4-.4.6-.7l-.6-2.4Z"/>
        <path class="cls-1" d="M328.4,166.7c-.2.3-.4.6-.5,1-.1-.2-.3-.5-.4-.7-.5-.9-1-1.7-1.6-2.4,0-.2.1-.3.2-.4l2.4,2.5Z"/>
        <path class="cls-1" d="M304.5,180.5c-.4.1-1.2-1.2-1.4-1.4-1.1-1.8-.9-3.6-.8-4.7,0-.9.2-2,.5-2.1.8,0,2.6,7.8,1.7,8.2Z"/>
        <path class="cls-1" d="M176.5,72.3c.5-.3,1.5.3,2.5,1.5,0,0-.4-.4-.3-.7.1-.3,1-.3,2.5,0,3.5.4,3.7.6,3.8.8.3.8-1.4,2.7-3.3,3.2-.1,0-2.3.5-4-.8-.7-.6-1-1.3-1.1-1.5-.3-.8-.5-2.1,0-2.4h0Z"/>
        <path class="cls-1" d="M189.8,91.5c.7-.8,2.2-.9,2.8-.3.6.6.1,1.7-.7,3.9-.6,1.5-.9,2.2-1.5,2.5-1.1.4-2.6-.4-2.6-1.1,0-.5.8-.6,1.4-1.5.9-1.4,0-2.6.7-3.5h0Z"/>
        <path class="cls-1" d="M194.8,85.4c-.7,0-1.4.8-1.5,1.5-.3,1.2,1.1,2,2.5,5.1.3.6.7,1.6.3,2.2-.3.4-.8.6-.8.6-.3,0-.5,0-.6.1-.2.3,1.2.9,1.1,1.7,0,.6-1,1.2-1,1.2h0c0,0,.8,1.1,1.4,1.3,1.1.4,3.5-1.3,3.9-3.3.2-1.1-.4-1.6-1.8-4.4-2-4-2.3-6-3.3-6h0Z"/>
        <path class="cls-1" d="M254.7,253.9c-.1.1-.3.3-.5.5,0,.4,0,.8.1,1.1.1.5.2,1,.4,1.5.2-.2.4-.4.6-.7l-.6-2.4Z"/>
        <path class="cls-1" d="M254.7,253.9c-.1.1-.3.3-.5.5,0,.4,0,.8.1,1.1.1.5.2,1,.4,1.5.2-.2.4-.4.6-.7l-.6-2.4ZM280.9,250.4c-.1.1-.3.3-.4.4,0,.3,0,.6,0,.9,0,.5.2,1,.4,1.5.1-.2.3-.3.5-.5l-.5-2.3Z"/>
        <path class="cls-1" d="M307.4,247.3c-.2.1-.3.3-.4.4-.1.7-.1,1.4,0,2.1,0,.2,0,.4,0,.7.3-.3.5-.5.8-.8l-.4-2.3ZM280.9,250.4c-.1.1-.3.3-.4.4,0,.3,0,.6,0,.9,0,.5.2,1,.4,1.5.1-.2.3-.3.5-.5l-.5-2.3Z"/>
        <path class="cls-1" d="M307.4,247.3c-.2.1-.3.3-.4.4-.1.7-.1,1.4,0,2.1,0,.2,0,.4,0,.7.3-.3.5-.5.8-.8l-.4-2.3ZM334.9,245.3c-.1,0-.2.2-.3.2,0,.5,0,1.1,0,1.7,0,.3,0,.6,0,.9.2-.1.4-.3.6-.4l-.3-2.3Z"/>
        <path class="cls-1" d="M354.7,244.8c-.3.3-.7.5-1,.7v2.3c.3-.3.7-.6,1.1-1v-2ZM334.9,245.3c-.1,0-.2.2-.3.2,0,.5,0,1.1,0,1.7,0,.3,0,.6,0,.9.2-.1.4-.3.6-.4l-.3-2.3Z"/>
        <path class="cls-1" d="M354.7,244.8c-.3.3-.7.5-1,.7v2.3c.3-.3.7-.6,1.1-1v-2Z"/>
      </g>
    </g>
  </g>
</svg>