<?xml version="1.0" encoding="UTF-8"?>
<svg xmlns="http://www.w3.org/2000/svg" version="1.1" xmlns:xlink="http://www.w3.org/1999/xlink" viewBox="0 0 425.2 425.2">
  <defs>
    <style>
      .cls-1 {
        fill: #1d1d1b;
      }
    </style>
  </defs>
  <!-- Generator: Adobe Illustrator 28.7.3, SVG Export Plug-In . SVG Version: 1.2.0 Build 164)  -->
  <g>
    <g id="Calque_1">
      <path class="cls-1" d="M258.8,116.6h-91.2c-28.4,0-51.5,23.1-51.5,51.5v91.2c0,28.4,23.1,51.5,51.5,51.5h91.2c28.4,0,51.5-23.1,51.5-51.5v-91.2c0-28.4-23.1-51.5-51.5-51.5ZM212.6,256.8c-23.8,0-43.1-19.3-43.1-43.1s19.4-43.1,43.1-43.1,43.1,19.4,43.1,43.1-19.3,43.1-43.1,43.1ZM267.5,170.5c-6.5,0-11.8-5.3-11.8-11.8s5.3-11.8,11.8-11.8,11.8,5.3,11.8,11.8-5.3,11.8-11.8,11.8ZM212.6,178.5c-19.4,0-35.1,15.8-35.1,35.1s15.8,35.1,35.1,35.1,35.1-15.8,35.1-35.1-15.8-35.1-35.1-35.1ZM258.8,116.6h-91.2c-28.4,0-51.5,23.1-51.5,51.5v91.2c0,28.4,23.1,51.5,51.5,51.5h91.2c28.4,0,51.5-23.1,51.5-51.5v-91.2c0-28.4-23.1-51.5-51.5-51.5ZM212.6,256.8c-23.8,0-43.1-19.3-43.1-43.1s19.4-43.1,43.1-43.1,43.1,19.4,43.1,43.1-19.3,43.1-43.1,43.1ZM267.5,170.5c-6.5,0-11.8-5.3-11.8-11.8s5.3-11.8,11.8-11.8,11.8,5.3,11.8,11.8-5.3,11.8-11.8,11.8ZM212.6,178.5c-19.4,0-35.1,15.8-35.1,35.1s15.8,35.1,35.1,35.1,35.1-15.8,35.1-35.1-15.8-35.1-35.1-35.1ZM213.2,35.9c-98.2,0-177.7,79.6-177.7,177.7s79.6,177.7,177.7,177.7,177.7-79.6,177.7-177.7S311.3,35.9,213.2,35.9ZM319.3,259.3c0,33.3-27.1,60.5-60.5,60.5h-91.2c-33.3,0-60.5-27.1-60.5-60.5v-91.2c0-33.3,27.1-60.5,60.5-60.5h91.2c33.3,0,60.5,27.1,60.5,60.5v91.2ZM258.8,116.6h-91.2c-28.4,0-51.5,23.1-51.5,51.5v91.2c0,28.4,23.1,51.5,51.5,51.5h91.2c28.4,0,51.5-23.1,51.5-51.5v-91.2c0-28.4-23.1-51.5-51.5-51.5ZM212.6,256.8c-23.8,0-43.1-19.3-43.1-43.1s19.4-43.1,43.1-43.1,43.1,19.4,43.1,43.1-19.3,43.1-43.1,43.1ZM267.5,170.5c-6.5,0-11.8-5.3-11.8-11.8s5.3-11.8,11.8-11.8,11.8,5.3,11.8,11.8-5.3,11.8-11.8,11.8ZM212.6,178.5c-19.4,0-35.1,15.8-35.1,35.1s15.8,35.1,35.1,35.1,35.1-15.8,35.1-35.1-15.8-35.1-35.1-35.1Z"/>
      <image width="600" height="600" transform="translate(365.4 159.9) scale(.5)" xlink:href="logo_instagram-1.png"/>
    </g>
  </g>
</svg>